<svg xmlns="http://www.w3.org/2000/svg" xmlns:xlink="http://www.w3.org/1999/xlink" width="1em" height="1em" preserveAspectRatio="xMidYMid meet" viewBox="0 0 32 32" style="-ms-transform: rotate(360deg); -webkit-transform: rotate(360deg); transform: rotate(360deg);"><path fill="none" d="M11 23a1 1 0 0 1-1-1V10a1 1 0 0 1 1.447-.894l12 6a1 1 0 0 1 0 1.788l-12 6A1.001 1.001 0 0 1 11 23Z"/><path fill="#eee" d="M16 2a14 14 0 1 0 14 14A14 14 0 0 0 16 2Zm7.447 14.895l-12 6A1 1 0 0 1 10 22V10a1 1 0 0 1 1.447-.894l12 6a1 1 0 0 1 0 1.788Z"/></svg>